<svg width="20" height="10" viewBox="0 0 20 10" fill="none" xmlns="http://www.w3.org/2000/svg">
<path d="M0.22915 5.57085C0.229384 5.57109 0.22958 5.57137 0.229853 5.57161L4.31204 9.76516C4.61786 10.0793 5.11251 10.0781 5.41692 9.76242C5.7213 9.44674 5.72012 8.93613 5.4143 8.62194L2.67352 5.80645L19.2188 5.80645C19.6502 5.80645 20 5.4454 20 5C20 4.5546 19.6502 4.19355 19.2188 4.19355L2.67356 4.19355L5.41427 1.37806C5.72009 1.06387 5.72126 0.553264 5.41688 0.237579C5.11247 -0.0781878 4.61778 -0.0792762 4.312 0.234837L0.229814 4.42839C0.22958 4.42863 0.229384 4.42891 0.229111 4.42915C-0.0768658 4.74439 -0.075889 5.25665 0.22915 5.57085Z" fill="#152027"/>
</svg>
